<?xml version="1.0" encoding="UTF-8"?>
<!-- Created with Inkscape (http://www.inkscape.org/) -->
<svg width="43.32mm" height="27.049mm" version="1.1" viewBox="0 0 43.32 27.049" xmlns="http://www.w3.org/2000/svg" xmlns:ns3="http://www.iki.fi/pav/software/textext/">
 <defs>
  <clipPath id="clipPath936">
   <path d="m150.2 379.32h125.08v79.322h-125.08z"/>
  </clipPath>
  <clipPath id="clipPath968">
   <path d="m150.2 379.32h125.08v79.322h-125.08z"/>
  </clipPath>
 </defs>
 <g transform="translate(-121.81 3.4569)">
  <g transform="matrix(.35278 0 0 -.35278 68.819 157.41)" clip-path="url(#clipPath936)">
   <g transform="translate(238.39 413.31)">
    <path d="m0 0c3e-3 0.894 0.373 1.746 0.854 2.51-2.717-1.475-6.093-2.054-8.329-2.494 2.232-0.454 5.605-1.039 8.313-2.532-0.477 0.768-0.841 1.622-0.838 2.516" fill="#00adef"/>
   </g>
   <g transform="translate(218.41 413.31)">
    <path d="m0 0c-3e-3 0.894-0.373 1.746-0.854 2.51 2.717-1.475 6.093-2.054 8.329-2.494-2.232-0.454-5.605-1.039-8.313-2.532 0.477 0.768 0.841 1.622 0.838 2.516" fill="#00adef"/>
   </g>
   <g transform="translate(184.2 413.32)">
    <path d="m0 0h34.213" fill="none" stroke="#00adef" stroke-width="2.25"/>
   </g>
   <g transform="translate(259 413.32)">
    <path d="m0 0h-20.612" fill="none" stroke="#00adef" stroke-width="2.25"/>
   </g>
   <g transform="translate(150.2 413.32)">
    <path d="m0 0h115.6" fill="none" stroke="#231f20" stroke-linejoin="round" stroke-width=".6"/>
   </g>
   <g transform="translate(184.2 447.32)">
    <path d="m0 0v-68" fill="none" stroke="#231f20" stroke-linejoin="round" stroke-width=".6"/>
   </g>
  </g>
  <g transform="matrix(.35278 0 0 -.35278 68.819 157.41)">
   <g clip-path="url(#clipPath968)" fill="#231f20" font-family="'Times Ten LT Std'" font-style="italic">
    <text transform="matrix(1 0 0 -1 268.15 411.32)" font-size="9.5px" xml:space="preserve"><tspan x="0 4.75" y="0">x </tspan></text>
    <text transform="matrix(1 0 0 -1 182.01 451.17)" font-size="9px" xml:space="preserve"><tspan x="0" y="0">y</tspan></text>
   </g>
  </g>
  <g transform="matrix(.35278 0 0 .35278 138.7 5.6532)" ns3:alignment="middle center" ns3:jacobian_sqrt="0.352778" ns3:pdfconverter="inkscape" ns3:preamble="/home/kalmer/.config/inkscape/extensions/textext/default_packages.tex" ns3:scale="0.9999999968109189" ns3:stroke-to-path="0" ns3:texconverter="pdflatex" ns3:text="$\\overrightarrow{\\bf{A}}$" ns3:version="1.8.1">
   <defs></defs>
   <g transform="translate(-149.26 -123.36)">
    <g transform="translate(148.71 128.46)">
     <path id="id-ccc9b873-2379-4217-a770-ecba6212bd8f" d="m6.5625-2.2969c0.17188 0 0.35938 0 0.35938-0.20312 0-0.1875-0.1875-0.1875-0.35938-0.1875h-5.3906c-0.17188 0-0.34375 0-0.34375 0.1875 0 0.20312 0.17188 0.20312 0.34375 0.20312z"/>
    </g>
    <g transform="translate(148.71 128.46)">
     <path d="m8.3125-2.2969c-0.54688 0.42188-0.8125 0.82812-0.89062 0.96875-0.45312 0.6875-0.53125 1.3125-0.53125 1.3125 0 0.125 0.125 0.125 0.20312 0.125 0.15625 0 0.17188-0.015625 0.21875-0.20312 0.21875-0.96875 0.8125-1.8125 1.9375-2.2656 0.125-0.046875 0.15625-0.0625 0.15625-0.14062 0-0.0625-0.0625-0.09375-0.078125-0.10938-0.45312-0.15625-1.6562-0.65625-2.0312-2.3281-0.03125-0.125-0.046875-0.15625-0.20312-0.15625-0.078125 0-0.20312 0-0.20312 0.125 0 0.015625 0.09375 0.64062 0.5 1.3125 0.20312 0.29688 0.5 0.64062 0.92188 0.96875h-7.4062c-0.17188 0-0.35938 0-0.35938 0.1875 0 0.20312 0.1875 0.20312 0.35938 0.20312z"/>
    </g>
    <g transform="translate(149.36 135.29)">
     <path d="m4.7188-6.7031c-0.10938-0.25-0.21875-0.25-0.39062-0.25-0.28125 0-0.32812 0.078125-0.39062 0.25l-2.4688 6c-0.0625 0.15625-0.09375 0.23438-0.84375 0.23438h-0.21875v0.46875c0.375-0.015625 0.85938-0.03125 1.1719-0.03125 0.39062 0 0.9375 0 1.3125 0.03125v-0.46875c-0.015625 0-0.89062 0-0.89062-0.125 0-0.015625 0.03125-0.10938 0.046875-0.125l0.5-1.2031h2.6719l0.59375 1.4531h-0.95312v0.46875c0.39062-0.03125 1.3281-0.03125 1.7656-0.03125 0.39062 0 1.2656 0 1.625 0.03125v-0.46875h-0.96875zm-0.84375 1.5469 1.1406 2.7656h-2.2812z"/>
    </g>
   </g>
  </g>
  <g transform="matrix(.35278 0 0 .35278 155.63 5.6532)" ns3:alignment="middle center" ns3:jacobian_sqrt="0.352778" ns3:pdfconverter="inkscape" ns3:preamble="/home/kalmer/.config/inkscape/extensions/textext/default_packages.tex" ns3:scale="0.9999999968109189" ns3:stroke-to-path="0" ns3:texconverter="pdflatex" ns3:text="$\\overrightarrow{\\bf{B}}$" ns3:version="1.8.1">
   <defs></defs>
   <g id="id-edc116e1-a791-4e72-b054-bb722a0c142a" transform="translate(-149.26 -123.36)">
    <g transform="translate(148.71 128.46)">
     <path d="m6.5625-2.2969c0.17188 0 0.35938 0 0.35938-0.20312 0-0.1875-0.1875-0.1875-0.35938-0.1875h-5.3906c-0.17188 0-0.34375 0-0.34375 0.1875 0 0.20312 0.17188 0.20312 0.34375 0.20312z"/>
    </g>
   </g>
   <g transform="translate(-149.26 -123.36)">
    <g transform="translate(148.71 128.46)">
     <path d="m8.3125-2.2969c-0.54688 0.42188-0.8125 0.82812-0.89062 0.96875-0.45312 0.6875-0.53125 1.3125-0.53125 1.3125 0 0.125 0.125 0.125 0.20312 0.125 0.15625 0 0.17188-0.015625 0.21875-0.20312 0.21875-0.96875 0.8125-1.8125 1.9375-2.2656 0.125-0.046875 0.15625-0.0625 0.15625-0.14062 0-0.0625-0.0625-0.09375-0.078125-0.10938-0.45312-0.15625-1.6562-0.65625-2.0312-2.3281-0.03125-0.125-0.046875-0.15625-0.20312-0.15625-0.078125 0-0.20312 0-0.20312 0.125 0 0.015625 0.09375 0.64062 0.5 1.3125 0.20312 0.29688 0.5 0.64062 0.92188 0.96875h-7.4062c-0.17188 0-0.35938 0-0.35938 0.1875 0 0.20312 0.1875 0.20312 0.35938 0.20312z"/>
    </g>
    <g transform="translate(149.62 135.29)">
     <path id="id-98b80b34-1e0f-4704-9bd9-d5e7c897760a" d="m2.7656-3.7344v-2.6406h1.8125c1.0156 0 1.1875 0.79688 1.1875 1.25 0 0.76562-0.46875 1.3906-1.4375 1.3906zm2.7031 0.17188c1.0781-0.20312 1.7188-0.79688 1.7188-1.5625 0-0.92188-0.875-1.7188-2.4688-1.7188h-4.3281v0.46875h1.0781v5.9062h-1.0781v0.46875h4.625c1.6562 0 2.4844-0.875 2.4844-1.8594 0-0.95312-0.84375-1.625-2.0312-1.7031zm-0.85938 3.0938h-1.8438v-2.9062h1.9375c0.20312 0 0.67188 0 1.0156 0.42188 0.32812 0.42188 0.32812 0.98438 0.32812 1.0938s0 1.3906-1.4375 1.3906z"/>
    </g>
   </g>
  </g>
 </g>
</svg>
