<?xml version="1.0" encoding="UTF-8"?>
<!-- Created with Inkscape (http://www.inkscape.org/) -->
<svg width="124.88mm" height="78.047mm" version="1.1" viewBox="0 0 124.88 78.047" xmlns="http://www.w3.org/2000/svg">
 <defs>
  <clipPath id="clipPath402">
   <path d="m278.26 612.28h21.72v-29.554h-21.72z"/>
  </clipPath>
  <radialGradient id="radialGradient408" cx="0" cy="0" r="1" fx="-.10849" fy=".05424" gradientTransform="matrix(19.067 0 0 -19.067 283.19 612.97)" gradientUnits="userSpaceOnUse">
   <stop stop-color="#feede5" offset="0"/>
   <stop stop-color="#c48d9f" offset="1"/>
  </radialGradient>
  <clipPath id="clipPath432">
   <path d="m291.93 607.88h30.889v-31.601h-30.889z"/>
  </clipPath>
  <radialGradient id="radialGradient438" cx="0" cy="0" r="1" fx=".03563" fy=".04071" gradientTransform="matrix(20.327 0 0 -20.327 300.13 608.04)" gradientUnits="userSpaceOnUse">
   <stop stop-color="#fff" offset="0"/>
   <stop stop-color="#9888c0" offset="1"/>
  </radialGradient>
  <clipPath id="clipPath462">
   <path d="m255.34 608.01h30.799v-31.734h-30.799z"/>
  </clipPath>
  <radialGradient id="radialGradient468" cx="0" cy="0" r="1" fx="-.17671" fy="-.15233" gradientTransform="matrix(33.912 0 0 -33.912 254.39 605.53)" gradientUnits="userSpaceOnUse">
   <stop stop-color="#fff" offset="0"/>
   <stop stop-color="#9888c0" offset="1"/>
  </radialGradient>
  <radialGradient id="radialGradient482" cx="0" cy="0" r="1" fx="-.72513" fy="-.56229" gradientTransform="matrix(15.781 0 0 -15.781 10.217 7.586)" gradientUnits="userSpaceOnUse">
   <stop stop-color="#feede5" offset="0"/>
   <stop stop-color="#c48d9f" offset="1"/>
  </radialGradient>
  <clipPath id="clipPath510">
   <path d="m288.01 593.68h33.07v-27.818h-33.07z"/>
  </clipPath>
  <radialGradient id="radialGradient516" cx="0" cy="0" r="1" fx="-.31079" fy="-.43683" gradientTransform="matrix(18.958 0 0 -18.958 299.47 588.18)" gradientUnits="userSpaceOnUse">
   <stop stop-color="#feede5" offset="0"/>
   <stop stop-color="#c48d9f" offset="1"/>
  </radialGradient>
  <clipPath id="clipPath540">
   <path d="m277.55 590.21h20.207v-30.399h-20.207z"/>
  </clipPath>
  <radialGradient id="radialGradient546" cx="0" cy="0" r="1" fx="-.23923" fy=".07361" gradientTransform="matrix(22.464 0 0 -22.464 285.73 594.38)" gradientUnits="userSpaceOnUse">
   <stop stop-color="#fff" offset="0"/>
   <stop stop-color="#9888c0" offset="1"/>
  </radialGradient>
  <clipPath id="clipPath574">
   <path d="m469.43 612.24h21.276v-30.354h-21.276z"/>
  </clipPath>
  <radialGradient id="radialGradient580" cx="0" cy="0" r="1" fx=".02263" fy=".04526" gradientTransform="matrix(27.47 0 0 -27.47 470.89 611.68)" gradientUnits="userSpaceOnUse">
   <stop stop-color="#fff" offset="0"/>
   <stop stop-color="#9888c0" offset="1"/>
  </radialGradient>
  <clipPath id="clipPath604">
   <path d="m445.8 611.22h20.918v-30.043h-20.918z"/>
  </clipPath>
  <radialGradient id="radialGradient610" cx="0" cy="0" r="1" fx="-.18384" fy="-.52272" gradientTransform="matrix(14.069 0 0 -14.069 449.57 602.59)" gradientUnits="userSpaceOnUse">
   <stop stop-color="#feede5" offset="0"/>
   <stop stop-color="#c48d9f" offset="1"/>
  </radialGradient>
  <clipPath id="clipPath634">
   <path d="m475.44 600.98h31.778v-28.663h-31.778z"/>
  </clipPath>
  <radialGradient id="radialGradient640" cx="0" cy="0" r="1" fx=".00224" fy="-.34489" gradientTransform="matrix(24.665 0 0 -24.665 477.59 592.85)" gradientUnits="userSpaceOnUse">
   <stop stop-color="#feede5" offset="0"/>
   <stop stop-color="#c48d9f" offset="1"/>
  </radialGradient>
  <clipPath id="clipPath668">
   <path d="m469.39 591.46h22.477v-33.025h-22.477z"/>
  </clipPath>
  <radialGradient id="radialGradient674" cx="0" cy="0" r="1" fx="-.47675" fy="-.06894" gradientTransform="matrix(18.777 0 0 -18.777 473.23 582.65)" gradientUnits="userSpaceOnUse">
   <stop stop-color="#fff" offset="0"/>
   <stop stop-color="#9888c0" offset="1"/>
  </radialGradient>
  <clipPath id="clipPath698">
   <path d="m431.16 600.67h28.04v-28.663h-28.04z"/>
  </clipPath>
  <radialGradient id="radialGradient704" cx="0" cy="0" r="1" fx=".04738" fy=".04738" gradientTransform="matrix(21.915 0 0 -21.915 430.63 599)" gradientUnits="userSpaceOnUse">
   <stop stop-color="#fff" offset="0"/>
   <stop stop-color="#9888c0" offset="1"/>
  </radialGradient>
  <clipPath id="clipPath728">
   <path d="m443.88 591.46h23.145v-30.354h-23.145z"/>
  </clipPath>
  <radialGradient id="radialGradient734" cx="0" cy="0" r="1" fx="-.04927" fy="-.59616" gradientTransform="matrix(17.765 0 0 -17.765 449.75 581.42)" gradientUnits="userSpaceOnUse">
   <stop stop-color="#feede5" offset="0"/>
   <stop stop-color="#c48d9f" offset="1"/>
  </radialGradient>
  <clipPath id="clipPath762">
   <path d="m349.39 611.7h35.829v-25.904h-35.829z"/>
  </clipPath>
  <radialGradient id="radialGradient768" cx="0" cy="0" r="1" fx=".39555" fy="-.39555" gradientTransform="matrix(20.917 0 0 -20.917 350.98 602.05)" gradientUnits="userSpaceOnUse">
   <stop stop-color="#feede5" offset="0"/>
   <stop stop-color="#c48d9f" offset="1"/>
  </radialGradient>
  <clipPath id="clipPath792">
   <path d="m357.22 589.66h35.829v-26.705h-35.829z"/>
  </clipPath>
  <radialGradient id="radialGradient798" cx="0" cy="0" r="1" fx=".1078" gradientTransform="matrix(21.648 0 0 -21.648 360.98 585.34)" gradientUnits="userSpaceOnUse">
   <stop stop-color="#fff" offset="0"/>
   <stop stop-color="#9888c0" offset="1"/>
  </radialGradient>
  <clipPath id="clipPath822">
   <path d="m356.55 630.17h34.449v-34.138h-34.449z"/>
  </clipPath>
  <radialGradient id="radialGradient828" cx="0" cy="0" r="1" fx=".05716" fy="-.22867" gradientTransform="matrix(32.613 0 0 -32.613 358.96 619.7)" gradientUnits="userSpaceOnUse">
   <stop stop-color="#fff" offset="0"/>
   <stop stop-color="#9888c0" offset="1"/>
  </radialGradient>
  <clipPath id="clipPath852">
   <path d="m369.19 586.24h34.094v-34.182h-34.094z"/>
  </clipPath>
  <radialGradient id="radialGradient858" cx="0" cy="0" r="1" fx="-.03258" fy="-.50916" gradientTransform="matrix(22.52 0 0 -22.52 374.38 573.36)" gradientUnits="userSpaceOnUse">
   <stop stop-color="#feede5" offset="0"/>
   <stop stop-color="#c48d9f" offset="1"/>
  </radialGradient>
  <radialGradient id="radialGradient876" cx="0" cy="0" r="1" fx=".16072" fy="-.987" gradientTransform="matrix(19.462 0 0 -19.462 -26.116 3.616)" gradientUnits="userSpaceOnUse">
   <stop stop-color="#feede5" offset="0"/>
   <stop stop-color="#c48d9f" offset="1"/>
  </radialGradient>
  <clipPath id="clipPath900">
   <path d="m369.82 590.29h36.853v-21.498h-36.853z"/>
  </clipPath>
  <radialGradient id="radialGradient906" cx="0" cy="0" r="1" fx="-.60519" fy="-.29553" gradientTransform="matrix(15.973 0 0 -15.973 380.39 585.39)" gradientUnits="userSpaceOnUse">
   <stop stop-color="#fff" offset="0"/>
   <stop stop-color="#9888c0" offset="1"/>
  </radialGradient>
  <radialGradient id="radialGradient996" cx="0" cy="0" r="1" fx="-.83737" fy=".32242" gradientTransform="matrix(19.609 0 0 -19.609 -19.777 2.741)" gradientUnits="userSpaceOnUse">
   <stop stop-color="#feede5" offset="0"/>
   <stop stop-color="#c48d9f" offset="1"/>
  </radialGradient>
  <clipPath id="clipPath1020">
   <path d="m532.01 736.53h24.791v-28.263h-24.791z"/>
  </clipPath>
  <radialGradient id="radialGradient1026" cx="0" cy="0" r="1" fx="-.01317" fy="-.1449" gradientTransform="matrix(23.467 0 0 -23.467 533.98 732.41)" gradientUnits="userSpaceOnUse">
   <stop stop-color="#feede5" offset="0"/>
   <stop stop-color="#c48d9f" offset="1"/>
  </radialGradient>
  <clipPath id="clipPath1036">
   <path d="m556.78 755.89h-353.75v-223.86h353.75z"/>
  </clipPath>
  <clipPath id="clipPath1058">
   <path d="m500.85 740.76h24.791v-28.931h-24.791z"/>
  </clipPath>
  <radialGradient id="radialGradient1064" cx="0" cy="0" r="1" fx="-.08081" fy="-.17693" gradientTransform="matrix(28.33 0 0 -28.33 503.06 738.91)" gradientUnits="userSpaceOnUse">
   <stop stop-color="#fff" offset="0"/>
   <stop stop-color="#9888c0" offset="1"/>
  </radialGradient>
  <clipPath id="clipPath1088">
   <path d="m527.78 711.78h27.729v-23.5h-27.729z"/>
  </clipPath>
  <radialGradient id="radialGradient1094" cx="0" cy="0" r="1" fx="-.53972" fy="-.00951" gradientTransform="matrix(18.887 0 0 -18.887 528.83 700.95)" gradientUnits="userSpaceOnUse">
   <stop stop-color="#fff" offset="0"/>
   <stop stop-color="#9888c0" offset="1"/>
  </radialGradient>
  <radialGradient id="radialGradient1108" cx="0" cy="0" r="1" fx="-.30183" fy="-.64806" gradientTransform="matrix(23.398 0 0 -23.398 -4.811 -15.964)" gradientUnits="userSpaceOnUse">
   <stop stop-color="#feede5" offset="0"/>
   <stop stop-color="#c48d9f" offset="1"/>
  </radialGradient>
  <clipPath id="clipPath1132">
   <path d="m493.82 702.97h27.641v-25.325h-27.641z"/>
  </clipPath>
  <radialGradient id="radialGradient1138" cx="0" cy="0" r="1" fx=".23332" fy=".5583" gradientTransform="matrix(24.837 0 0 -24.837 492.35 690.37)" gradientUnits="userSpaceOnUse">
   <stop stop-color="#fff" offset="0"/>
   <stop stop-color="#9888c0" offset="1"/>
  </radialGradient>
  <radialGradient id="radialGradient1156" cx="0" cy="0" r="1" fx="-.64656" fy="-.42911" gradientTransform="matrix(15.217 0 0 -15.217 -.75899 12.973)" gradientUnits="userSpaceOnUse">
   <stop stop-color="#fff" offset="0"/>
   <stop stop-color="#9888c0" offset="1"/>
  </radialGradient>
  <radialGradient id="radialGradient1170" cx="0" cy="0" r="1" fx="-.57327" fy="-.42628" gradientTransform="matrix(14.035 0 0 -14.035 -4.225 -8.637)" gradientUnits="userSpaceOnUse">
   <stop stop-color="#feede5" offset="0"/>
   <stop stop-color="#c48d9f" offset="1"/>
  </radialGradient>
  <clipPath id="clipPath1194">
   <path d="m228.94 701.74h24.569v-29.998h-24.569z"/>
  </clipPath>
  <radialGradient id="radialGradient1200" cx="0" cy="0" r="1" gradientTransform="matrix(21.498 0 0 -21.498 235.5 695.64)" gradientUnits="userSpaceOnUse">
   <stop stop-color="#feede5" offset="0"/>
   <stop stop-color="#c48d9f" offset="1"/>
  </radialGradient>
  <clipPath id="clipPath1224">
   <path d="m215 711.62h51.763v-29.286h-51.763z"/>
  </clipPath>
  <radialGradient id="radialGradient1230" cx="0" cy="0" r="1" fx=".00493" fy="-.22644" gradientTransform="matrix(21.025 0 0 -21.025 240.6 697.25)" gradientUnits="userSpaceOnUse">
   <stop stop-color="#fff" offset="0"/>
   <stop stop-color="#9888c0" offset="1"/>
  </radialGradient>
  <clipPath id="clipPath1262">
   <path d="m215.31 730.18h51.969v-29.469h-51.969z"/>
  </clipPath>
  <radialGradient id="radialGradient1268" cx="0" cy="0" r="1" fx="-.08696" fy="-.20871" gradientTransform="matrix(35.558 0 0 -35.558 226.74 722.06)" gradientUnits="userSpaceOnUse">
   <stop stop-color="#feede5" offset="0"/>
   <stop stop-color="#c48d9f" offset="1"/>
  </radialGradient>
  <clipPath id="clipPath1290">
   <path d="m228.94 742.95h24.569v-29.954h-24.569z"/>
  </clipPath>
  <radialGradient id="radialGradient1296" cx="0" cy="0" r="1" gradientTransform="matrix(27.678 0 0 -27.678 230.74 742.76)" gradientUnits="userSpaceOnUse">
   <stop stop-color="#fff" offset="0"/>
   <stop stop-color="#9888c0" offset="1"/>
  </radialGradient>
  <clipPath id="clipPath1322">
   <path d="m428.82 712.72h22.744v-21.586h-22.744z"/>
  </clipPath>
  <radialGradient id="radialGradient1328" cx="0" cy="0" r="1" gradientTransform="matrix(9.1708 0 0 -9.1708 437.65 703.69)" gradientUnits="userSpaceOnUse">
   <stop stop-color="#feede5" offset="0"/>
   <stop stop-color="#c48d9f" offset="1"/>
  </radialGradient>
  <clipPath id="clipPath1350">
   <path d="m427.13 744.28h24.791v-31.645h-24.791z"/>
  </clipPath>
  <radialGradient id="radialGradient1356" cx="0" cy="0" r="1" fx="-.16339" fy=".04585" gradientTransform="matrix(25.801 0 0 -25.801 431.36 747.28)" gradientUnits="userSpaceOnUse">
   <stop stop-color="#fff" offset="0"/>
   <stop stop-color="#9888c0" offset="1"/>
  </radialGradient>
  <clipPath id="clipPath1378">
   <path d="m437.32 732.35h28.218v-26.214h-28.218z"/>
  </clipPath>
  <radialGradient id="radialGradient1384" cx="0" cy="0" r="1" fx="-.11777" fy="-.35329" gradientTransform="matrix(21.024 0 0 -21.024 442 723.11)" gradientUnits="userSpaceOnUse">
   <stop stop-color="#feede5" offset="0"/>
   <stop stop-color="#c48d9f" offset="1"/>
  </radialGradient>
  <radialGradient id="radialGradient1398" cx="0" cy="0" r="1" fx="-.79919" fy="-.60106" gradientTransform="matrix(14.695 0 0 -14.695 -16.945 14.123)" gradientUnits="userSpaceOnUse">
   <stop stop-color="#feede5" offset="0"/>
   <stop stop-color="#c48d9f" offset="1"/>
  </radialGradient>
  <clipPath id="clipPath1422">
   <path d="m400.38 710.05h29.375v-23.322h-29.375z"/>
  </clipPath>
  <radialGradient id="radialGradient1428" cx="0" cy="0" r="1" fx="-.11699" fy="-.20207" gradientTransform="matrix(19.477 0 0 -19.477 400.88 700.11)" gradientUnits="userSpaceOnUse">
   <stop stop-color="#fff" offset="0"/>
   <stop stop-color="#9888c0" offset="1"/>
  </radialGradient>
  <radialGradient id="radialGradient1442" cx="0" cy="0" r="1" fx=".56848" fy=".47871" gradientTransform="matrix(20.764 0 0 -20.764 -3.324 -9.288)" gradientUnits="userSpaceOnUse">
   <stop stop-color="#fff" offset="0"/>
   <stop stop-color="#9888c0" offset="1"/>
  </radialGradient>
  <clipPath id="clipPath1470">
   <path d="m412.62 702.35h25.059v-28.618h-25.059z"/>
  </clipPath>
  <radialGradient id="radialGradient1476" cx="0" cy="0" r="1" fx="-.30136" fy="-.02739" gradientTransform="matrix(22.637 0 0 -22.637 425.95 702.12)" gradientUnits="userSpaceOnUse">
   <stop stop-color="#feede5" offset="0"/>
   <stop stop-color="#c48d9f" offset="1"/>
  </radialGradient>
  <clipPath id="clipPath1500">
   <path d="m412.59 719.8h24.301v-22.209h-24.301z"/>
  </clipPath>
  <radialGradient id="radialGradient1506" cx="0" cy="0" r="1" fx=".19383" fy=".11928" gradientTransform="matrix(27.905 0 0 -27.905 406.68 713.45)" gradientUnits="userSpaceOnUse">
   <stop stop-color="#fff" offset="0"/>
   <stop stop-color="#9888c0" offset="1"/>
  </radialGradient>
  <radialGradient id="radialGradient1524" cx="0" cy="0" r="1" fx="-.81667" fy="-.57712" gradientTransform="matrix(18.273 0 0 -18.273 .527 15.482)" gradientUnits="userSpaceOnUse">
   <stop stop-color="#fff" offset="0"/>
   <stop stop-color="#9888c0" offset="1"/>
  </radialGradient>
  <radialGradient id="radialGradient1538" cx="0" cy="0" r="1" fx="-.28053" fy="-.95984" gradientTransform="matrix(13.098 0 0 -13.098 -6.19 12.187)" gradientUnits="userSpaceOnUse">
   <stop stop-color="#feede5" offset="0"/>
   <stop stop-color="#c48d9f" offset="1"/>
  </radialGradient>
  <radialGradient id="radialGradient1552" cx="0" cy="0" r="1" fx="-.7576" fy="-.18346" gradientTransform="matrix(16.265 0 0 -16.265 -7.783 -12.322)" gradientUnits="userSpaceOnUse">
   <stop stop-color="#fff" offset="0"/>
   <stop stop-color="#9888c0" offset="1"/>
  </radialGradient>
  <clipPath id="clipPath1576">
   <path d="m314.53 703.04h28.573v-31.332h-28.573z"/>
  </clipPath>
  <radialGradient id="radialGradient1582" cx="0" cy="0" r="1" fx="-.46199" fy=".26839" gradientTransform="matrix(17.531 0 0 -17.531 317.87 686.9)" gradientUnits="userSpaceOnUse">
   <stop stop-color="#feede5" offset="0"/>
   <stop stop-color="#c48d9f" offset="1"/>
  </radialGradient>
  <clipPath id="clipPath1606">
   <path d="m307.06 712.92h34.358v-27.237h-34.358z"/>
  </clipPath>
  <radialGradient id="radialGradient1612" cx="0" cy="0" r="1" fx=".10417" fy="-.27782" gradientTransform="matrix(23.8 0 0 -23.8 301.72 704.64)" gradientUnits="userSpaceOnUse">
   <stop stop-color="#fff" offset="0"/>
   <stop stop-color="#9888c0" offset="1"/>
  </radialGradient>
  <radialGradient id="radialGradient1630" cx="0" cy="0" r="1" fx="-.70691" fy="-.22081" gradientTransform="matrix(14.721 0 0 -14.721 -2.273 -10.016)" gradientUnits="userSpaceOnUse">
   <stop stop-color="#feede5" offset="0"/>
   <stop stop-color="#c48d9f" offset="1"/>
  </radialGradient>
 </defs>
 <g transform="translate(-103.68 -91.858)">
  <g fill="#231f20" stroke-width=".35278">
   <text x="127.55344" y="169.1853" font-family="Sabon" font-size="2.9986px" font-style="italic" xml:space="preserve"><tspan x="127.55344" y="169.1853" stroke-width=".35278">y</tspan></text>
   <text x="129.05273" y="168.12698" font-family="Sabon" font-size="2.4694px" xml:space="preserve"><tspan x="129.05273" y="168.12698" stroke-width=".35278">3</tspan></text>
   <text x="131.11226" y="169.1853" font-family="Symbol" font-size="2.9986px" xml:space="preserve"><tspan x="131.11226" y="169.1853" stroke-width=".35278">−</tspan></text>
   <g font-family="Sabon">
    <text x="133.50815" y="169.1853" font-size="2.9986px" xml:space="preserve"><tspan x="133.50815" y="169.1853" stroke-width=".35278">3</tspan></text>
    <text x="135.17538" y="169.1853" font-size="2.9986px" font-style="italic" xml:space="preserve"><tspan x="135.17538 136.67468" y="169.1853" stroke-width=".35278">yx</tspan></text>
    <text x="138.34138" y="168.12698" font-size="2.4694px" xml:space="preserve"><tspan x="138.34138" y="168.12698" stroke-width=".35278">2</tspan></text>
    <text x="190.97723" y="169.1853" font-size="2.9986px" font-style="italic" xml:space="preserve"><tspan x="190.97723" y="169.1853" stroke-width=".35278">x</tspan></text>
    <text x="192.64445" y="168.12698" font-size="2.4694px" xml:space="preserve"><tspan x="192.64445" y="168.12698" stroke-width=".35278">3</tspan></text>
   </g>
   <text x="194.70398" y="169.1853" font-family="Symbol" font-size="2.9986px" xml:space="preserve"><tspan x="194.70398" y="169.1853" stroke-width=".35278">−</tspan></text>
   <g font-family="Sabon">
    <text x="197.09987" y="169.1853" font-size="2.9986px" xml:space="preserve"><tspan x="197.09987" y="169.1853" stroke-width=".35278">3</tspan></text>
    <text x="198.76711" y="169.1853" font-size="2.9986px" font-style="italic" xml:space="preserve"><tspan x="198.76711 200.43433" y="169.1853" stroke-width=".35278">xy</tspan></text>
    <text x="201.93311" y="168.12698" font-size="2.4694px" xml:space="preserve"><tspan x="201.93311" y="168.12698" stroke-width=".35278">2</tspan></text>
    <text x="159.08649" y="169.1853" font-size="2.9986px" xml:space="preserve"><tspan x="159.08649" y="169.1853" stroke-width=".35278">5</tspan></text>
    <text x="160.75371" y="169.1853" font-size="2.9986px" font-style="italic" xml:space="preserve"><tspan x="160.75371 162.25302" y="169.1853" stroke-width=".35278">yz</tspan></text>
    <text x="163.5844" y="168.12698" font-size="2.4694px" xml:space="preserve"><tspan x="163.5844" y="168.12698" stroke-width=".35278">2</tspan></text>
   </g>
   <text x="165.64391" y="169.1853" font-family="Symbol" font-size="2.9986px" xml:space="preserve"><tspan x="165.64391" y="169.1853" stroke-width=".35278">−</tspan></text>
   <text x="168.03979" y="169.1853" font-family="Sabon" font-size="2.9986px" font-style="italic" xml:space="preserve"><tspan x="168.03979 169.53911" y="169.1853" stroke-width=".35278">yr</tspan></text>
   <text x="170.70522" y="168.12698" font-family="Sabon" font-size="2.4694px" xml:space="preserve"><tspan x="170.70522" y="168.12698" stroke-width=".35278">2</tspan></text>
  </g>
  <g transform="matrix(.35278 0 0 -.35278 145.54 142.93)">
   <path d="m0 0-14.999-9.48" fill="none" stroke="#231f20" stroke-linecap="round" stroke-linejoin="round" stroke-width=".5"/>
  </g>
  <g transform="matrix(.35278 0 0 -.35278 32.141 357.77)">
   <g clip-path="url(#clipPath402)">
    <path d="m297 591.76c-0.979-3.827-2.76-6.453-5.742-7.744-2.937-1.291-5.696 0.445-8.145 2.181-4.851 3.383-4.495 22.744 3.918 24.435 8.412 1.647 12.951-7.433 9.969-18.872" fill="url(#radialGradient408)"/>
   </g>
  </g>
  <g transform="matrix(.35278 0 0 -.35278 136.92 149.01)">
   <path d="m0 0c-0.979-3.827-2.76-6.453-5.742-7.744-2.937-1.291-5.696 0.445-8.145 2.181-4.851 3.383-4.495 22.744 3.918 24.435 8.412 1.647 12.951-7.433 9.969-18.872z" fill="none" stroke="#d19887" stroke-width=".25"/>
  </g>
  <g transform="matrix(.35278 0 0 -.35278 32.141 357.77)">
   <g clip-path="url(#clipPath432)">
    <path d="m318.94 585.31c-1.291-3.872-1.914-6.454-5.742-7.744-3.872-1.291-11.839 0.445-15.044 2.136-6.231 3.383-1.068 24.791 9.881 26.482 10.949 1.692 14.777-9.48 10.905-20.874" fill="url(#radialGradient438)"/>
   </g>
  </g>
  <g transform="matrix(.35278 0 0 -.35278 144.66 151.28)">
   <path d="m0 0c-1.291-3.872-1.914-6.454-5.742-7.744-3.872-1.291-11.839 0.445-15.044 2.136-6.231 3.383-1.068 24.791 9.881 26.482 10.949 1.692 14.777-9.48 10.905-20.874z" fill="none" stroke="#9987c0" stroke-width=".25"/>
  </g>
  <g transform="matrix(.35278 0 0 -.35278 32.141 357.77)">
   <g clip-path="url(#clipPath462)">
    <path d="m257.3 588.38c0.712-3.872 4.94-9.525 8.056-10.815 3.116-1.291 8.679 1.023 12.151 2.136 8.634 2.804 3.471 24.658-7.967 26.482-11.483 1.825-14.198-7.566-12.24-17.803" fill="url(#radialGradient468)"/>
   </g>
  </g>
  <g transform="matrix(.35278 0 0 -.35278 122.91 150.2)">
   <path d="m0 0c0.712-3.872 4.94-9.525 8.056-10.815 3.116-1.291 8.679 1.023 12.151 2.136 8.634 2.804 3.471 24.658-7.967 26.482-11.483 1.825-14.198-7.566-12.24-17.803z" fill="none" stroke="#9987c0" stroke-width=".25"/>
  </g>
  <g transform="matrix(.35278 0 0 -.35278 123.27 155.13)">
   <path d="m0 0c0.712-3.873 4.184-8.234 8.056-8.101 13.441 0.579 23.678 27.15 4.495 27.284-11.884 0.089-14.51-8.947-12.551-19.183" fill="url(#radialGradient482)"/>
   <path d="m0 0c0.712-3.873 4.184-8.234 8.056-8.101 13.441 0.579 23.678 27.15 4.495 27.284-11.884 0.089-14.51-8.947-12.551-19.183z" fill="none" stroke="#d19887" stroke-width=".25"/>
  </g>
  <g transform="matrix(.35278 0 0 -.35278 133.63 141.51)">
   <path d="m0 0v-59.71m9.525 40.371-42.55-26.928m75.975 2.404-51.095 22.209" fill="none" stroke="#231f20" stroke-linecap="round" stroke-linejoin="round" stroke-width=".5"/>
  </g>
  <g transform="matrix(.35278 0 0 -.35278 32.141 357.77)">
   <g clip-path="url(#clipPath510)">
    <path d="m319.3 574.41c-0.668-3.873-5.252-8.546-8.768-8.413-13.442 0.535-22.522 27.462-4.852 27.596 10.949 0.089 15.4-8.947 13.62-19.183" fill="url(#radialGradient516)"/>
   </g>
  </g>
  <g transform="matrix(.35278 0 0 -.35278 144.78 155.13)">
   <path d="m0 0c-0.668-3.873-5.252-8.546-8.768-8.413-13.442 0.535-22.522 27.462-4.852 27.596 10.949 0.089 15.4-8.947 13.62-19.183z" fill="none" stroke="#d19887" stroke-width=".25"/>
  </g>
  <g transform="matrix(.35278 0 0 -.35278 32.141 357.77)">
   <g clip-path="url(#clipPath540)">
    <path d="m296.55 568.98c-0.489-3.916-6.098-9.168-9.169-8.456-3.026 0.712-6.32 5.163-7.878 10.949-1.958 7.433 2.048 18.07 8.813 18.382 7.433 0.356 9.436-10.638 8.234-20.875" fill="url(#radialGradient546)"/>
   </g>
  </g>
  <g transform="matrix(.35278 0 0 -.35278 136.76 157.05)">
   <path d="m0 0c-0.489-3.916-6.098-9.168-9.169-8.456-3.026 0.712-6.32 5.163-7.878 10.949-1.958 7.433 2.048 18.07 8.813 18.382 7.433 0.356 9.436-10.638 8.234-20.875z" fill="none" stroke="#9987c0" stroke-width=".25"/>
  </g>
  <g transform="matrix(.35278 0 0 -.35278 148.79 156.98)">
   <path d="m0 0-17.269 7.477m181.56 30.891-17.047-12.062" fill="none" stroke="#231f20" stroke-linecap="round" stroke-linejoin="round" stroke-width=".5"/>
  </g>
  <g transform="matrix(.35278 0 0 -.35278 32.141 357.77)">
   <g clip-path="url(#clipPath574)">
    <path d="m489.46 591.01c-0.446-3.873-6.098-9.124-9.125-8.413-3.071 0.668-7.343 4.451-8.901 10.237-2.004 7.433 3.026 18.738 9.791 19.05 7.478 0.356 9.481-10.638 8.235-20.874" fill="url(#radialGradient580)"/>
   </g>
  </g>
  <g transform="matrix(.35278 0 0 -.35278 204.81 149.27)">
   <path d="m0 0c-0.446-3.873-6.098-9.124-9.125-8.413-3.071 0.668-7.343 4.451-8.901 10.237-2.004 7.433 3.026 18.738 9.791 19.05 7.478 0.356 9.481-10.638 8.235-20.874z" fill="none" stroke="#9987c0" stroke-width=".25"/>
  </g>
  <g transform="matrix(.35278 0 0 -.35278 32.141 357.77)">
   <g clip-path="url(#clipPath604)">
    <path d="m447.04 591.01c0.446-3.873 6.409-9.837 9.48-9.124 3.071 0.711 6.677 3.782 8.191 9.568 2.002 7.433-2.671 19.095-9.437 19.406-7.477 0.356-9.479-9.614-8.234-19.85" fill="url(#radialGradient610)"/>
   </g>
  </g>
  <g transform="matrix(.35278 0 0 -.35278 189.85 149.27)">
   <path d="m0 0c0.446-3.873 6.409-9.837 9.48-9.124 3.071 0.711 6.677 3.782 8.191 9.568 2.002 7.433-2.671 19.095-9.437 19.406-7.477 0.356-9.479-9.614-8.234-19.85z" fill="none" stroke="#d19887" stroke-width=".25"/>
  </g>
  <g transform="matrix(.35278 0 0 -.35278 32.141 357.77)">
   <g clip-path="url(#clipPath634)">
    <path d="m477.09 582.15c0.624-3.872 8.635-9.836 12.73-9.124 4.094 0.712 12.773 2.715 14.376 8.545 3.025 10.86-4.273 18.739-13.353 19.05-10.014 0.356-15.4-8.234-13.753-18.471" fill="url(#radialGradient640)"/>
   </g>
  </g>
  <g transform="matrix(.35278 0 0 -.35278 200.45 152.4)">
   <path d="m0 0c0.624-3.872 8.635-9.836 12.73-9.124 4.094 0.712 12.773 2.715 14.376 8.545 3.025 10.86-4.273 18.739-13.353 19.05-10.014 0.356-15.4-8.234-13.753-18.471z" fill="none" stroke="#d19887" stroke-width=".25"/>
  </g>
  <g transform="matrix(.35278 0 0 -.35278 197.13 141.51)">
   <path d="m0 0v-59.71m8.501 40.952-39.835-28.308m3.071 36.141 65.027-31.022" fill="none" stroke="#231f20" stroke-linecap="round" stroke-linejoin="round" stroke-width=".5"/>
  </g>
  <g transform="matrix(.35278 0 0 -.35278 32.141 357.77)">
   <g clip-path="url(#clipPath668)">
    <path d="m489.42 569.2c-2.671-10.771-15.222-9.168-17.759 2.493-2.27 10.504-1.201 19.094 6.543 19.405 8.545 0.356 13.664-11.794 11.216-21.898" fill="url(#radialGradient674)"/>
   </g>
  </g>
  <g transform="matrix(.35278 0 0 -.35278 204.8 156.97)">
   <path d="m0 0c-2.671-10.771-15.222-9.168-17.759 2.493-2.27 10.504-1.201 19.094 6.543 19.405 8.545 0.356 13.664-11.794 11.216-21.898z" fill="none" stroke="#9987c0" stroke-width=".25"/>
  </g>
  <g transform="matrix(.35278 0 0 -.35278 32.141 357.77)">
   <g clip-path="url(#clipPath698)">
    <path d="m432.8 581.8c0.624-3.872 8.635-9.791 12.73-9.079 4.095 0.667 8.901 3.738 10.993 9.569 2.671 7.433-0.89 17.714-9.97 18.026-9.969 0.356-15.399-8.279-13.753-18.516" fill="url(#radialGradient704)"/>
   </g>
  </g>
  <g transform="matrix(.35278 0 0 -.35278 184.82 152.52)">
   <path d="m0 0c0.624-3.872 8.635-9.791 12.73-9.079 4.095 0.667 8.901 3.738 10.993 9.569 2.671 7.433-0.89 17.714-9.97 18.026-9.969 0.356-15.399-8.279-13.753-18.516z" fill="none" stroke="#9987c0" stroke-width=".25"/>
  </g>
  <g transform="matrix(.35278 0 0 -.35278 32.141 357.77)">
   <g clip-path="url(#clipPath728)">
    <path d="m446.78 568.85c1.78-6.186 6.721-7.744 10.683-6.72 3.916 1.068 5.384 3.026 6.898 8.901 2.67 10.504 2.181 19.762-6.898 20.073-10.015 0.356-13.577-12.106-10.683-22.254" fill="url(#radialGradient734)"/>
   </g>
  </g>
  <g transform="matrix(.35278 0 0 -.35278 189.75 157.09)">
   <path d="m 0,0 c 1.78,-6.186 6.721,-7.744 10.683,-6.72 3.916,1.068 5.384,3.026 6.898,8.901 2.67,10.504 2.181,19.762 -6.898,20.073 C 0.668,22.61 -2.894,10.148 0,0 Z" fill="none" stroke="#d19887" stroke-width=".25"/>
  </g>
  <g transform="matrix(.35278 0 0 -.35278 190.88 154.69)">
   <path d="m0 0-13.619-9.703m-84.927 35.861 14.643-7.388" fill="none" stroke="#231f20" stroke-linecap="round" stroke-linejoin="round" stroke-width=".5"/>
  </g>
  <g transform="matrix(.35278 0 0 -.35278 32.141 357.77)">
   <g clip-path="url(#clipPath762)">
    <path d="m381.21 600.26c-2.714-7.701-15.889-14.466-23.856-11.706-7.967 2.715-3.561 11.35 0.133 14.198 10.416 8.012 27.729 8.946 23.723-2.492" fill="url(#radialGradient768)"/>
   </g>
  </g>
  <g transform="matrix(.35278 0 0 -.35278 166.62 146.01)">
   <path d="m0 0c-2.714-7.701-15.889-14.466-23.856-11.706-7.967 2.715-3.561 11.35 0.133 14.198 10.416 8.012 27.729 8.946 23.723-2.492z" fill="none" stroke="#d19887" stroke-width=".25"/>
  </g>
  <g transform="matrix(.35278 0 0 -.35278 32.141 357.77)">
   <g clip-path="url(#clipPath792)">
    <path d="m389.05 577.47c-2.715-7.745-15.845-14.51-23.857-11.75-7.967 2.759-5.608 13.085-1.913 15.933 10.414 8.012 29.775 7.211 25.77-4.183" fill="url(#radialGradient798)"/>
   </g>
  </g>
  <g transform="matrix(.35278 0 0 -.35278 169.39 154.05)">
   <path d="m0 0c-2.715-7.745-15.845-14.51-23.857-11.75-7.967 2.759-5.608 13.085-1.913 15.933 10.414 8.012 29.775 7.211 25.77-4.183z" fill="none" stroke="#9987c0" stroke-width=".25"/>
  </g>
  <g transform="matrix(.35278 0 0 -.35278 32.141 357.77)">
   <g clip-path="url(#clipPath822)">
    <path d="m387 607.07c-1.38-3.827-6.099-8.501-10.104-9.747-4.051-1.291-8.367 2.136-12.373 3.472-7.967 2.759-3.561 18.559 0.133 21.364 10.415 8.011 26.349-3.65 22.344-15.089" fill="url(#radialGradient828)"/>
   </g>
  </g>
  <g transform="matrix(.35278 0 0 -.35278 168.67 143.61)">
   <path d="m0 0c-1.38-3.827-6.099-8.501-10.104-9.747-4.051-1.291-8.367 2.136-12.373 3.472-7.967 2.759-3.561 18.559 0.133 21.364 10.415 8.011 26.349-3.65 22.344-15.089z" fill="none" stroke="#9987c0" stroke-width=".25"/>
  </g>
  <g transform="matrix(.35278 0 0 -.35278 32.141 357.77)">
   <g clip-path="url(#clipPath852)">
    <path d="m399.24 563.14c-1.335-3.873-6.053-8.501-10.104-9.792-4.005-1.29-10.058 0.445-13.352 2.137-6.587 3.427-2.581 19.895 1.113 22.743 10.415 8.012 26.394-3.694 22.343-15.088" fill="url(#radialGradient858)"/>
   </g>
  </g>
  <g transform="matrix(.35278 0 0 -.35278 172.98 159.11)">
   <path d="m0 0c-1.335-3.873-6.053-8.501-10.104-9.792-4.005-1.29-10.058 0.445-13.352 2.137-6.587 3.427-2.581 19.895 1.113 22.743 10.415 8.012 26.394-3.694 22.343-15.088z" fill="none" stroke="#d19887" stroke-width=".25"/>
  </g>
  <g transform="matrix(.35278 0 0 -.35278 165.62 136.09)">
   <path d="m0 0v-81.094m22.121 51.096-49.404-23.501m17.18 18.426 42.46-21.497" fill="none" stroke="#231f20" stroke-linecap="round" stroke-linejoin="round" stroke-width=".5"/>
  </g>
  <g transform="matrix(.35278 0 0 -.35278 172.62 145.4)">
   <path d="m0 0c-2.716-7.744-12.418-13.797-20.43-11.082-7.967 2.759-6.276 13.441-2.581 16.29 10.415 8.011 27.06 6.187 23.011-5.208" fill="url(#radialGradient876)"/>
   <path d="m0 0c-2.716-7.744-12.418-13.797-20.43-11.082-7.967 2.759-6.276 13.441-2.581 16.29 10.415 8.011 27.06 6.187 23.011-5.208z" fill="none" stroke="#d19887" stroke-width=".25"/>
  </g>
  <g transform="matrix(.35278 0 0 -.35278 32.141 357.77)">
   <g clip-path="url(#clipPath900)">
    <path d="m405.07 578.14c-9.436-6.632-19.272-9.347-27.284-6.632-7.967 2.76-7.967 8.323-4.273 11.172 3.071 2.359 9.659 1.379 14.465 3.071 5.698 2.047 10.193 4.54 13.353 3.516 4.762-1.558 5.341-9.97 3.739-11.127" fill="url(#radialGradient906)"/>
   </g>
  </g>
  <g transform="matrix(.35278 0 0 -.35278 175.04 153.81)">
   <path d="m0 0c-9.436-6.632-19.272-9.347-27.284-6.632-7.967 2.76-7.967 8.323-4.273 11.172 3.071 2.359 9.659 1.379 14.465 3.071 5.698 2.047 10.193 4.54 13.353 3.516 4.762-1.558 5.341-9.97 3.739-11.127z" fill="none" stroke="#9987c0" stroke-width=".25"/>
  </g>
  <g transform="matrix(.35278 0 0 -.35278 172.59 153.78)">
   <path d="m0 0 12.595-6.409" fill="none" stroke="#231f20" stroke-linecap="round" stroke-linejoin="round" stroke-width=".5"/>
  </g>
  <g fill="#231f20" stroke-width=".35278">
   <text x="215.70695" y="127.38079" font-family="Sabon" font-size="2.9986px" font-style="italic" xml:space="preserve"><tspan x="215.70695 217.37419 218.87349 179.27684 180.60822" y="127.38079" stroke-width=".35278">xyzzx</tspan></text>
   <text x="182.27457" y="126.32246" font-family="Sabon" font-size="2.4694px" xml:space="preserve"><tspan x="182.27457" y="126.32246" stroke-width=".35278">2</tspan></text>
   <text x="184.33408" y="127.38079" font-family="Symbol" font-size="2.9986px" xml:space="preserve"><tspan x="184.33408" y="127.38079" stroke-width=".35278">−</tspan></text>
   <g font-family="Sabon">
    <text x="186.72997" y="127.38079" font-size="2.9986px" font-style="italic" xml:space="preserve"><tspan x="186.72997 188.06136" y="127.38079" stroke-width=".35278">zy</tspan></text>
    <text x="189.56013" y="126.32246" font-size="2.4694px" xml:space="preserve"><tspan x="189.56013" y="126.32246" stroke-width=".35278">2</tspan></text>
    <text x="144.94609" y="127.38079" font-size="2.9986px" xml:space="preserve"><tspan x="144.94609" y="127.38079" stroke-width=".35278">5</tspan></text>
    <text x="146.61331" y="127.38079" font-size="2.9986px" font-style="italic" xml:space="preserve"><tspan x="146.61331 148.28053" y="127.38079" stroke-width=".35278">xz</tspan></text>
    <text x="149.61192" y="126.32246" font-size="2.4694px" xml:space="preserve"><tspan x="149.61192" y="126.32246" stroke-width=".35278">2</tspan></text>
   </g>
   <text x="151.67143" y="127.38079" font-family="Symbol" font-size="2.9986px" xml:space="preserve"><tspan x="151.67143" y="127.38079" stroke-width=".35278">−</tspan></text>
   <g font-family="Sabon">
    <text x="154.06734" y="127.38079" font-size="2.9986px" font-style="italic" xml:space="preserve"><tspan x="154.06734 155.73456" y="127.38079" stroke-width=".35278">xr</tspan></text>
    <text x="156.90067" y="126.32246" font-size="2.4694px" xml:space="preserve"><tspan x="156.90067" y="126.32246" stroke-width=".35278">2</tspan></text>
    <text x="110.87798" y="127.38079" font-size="2.9986px" xml:space="preserve"><tspan x="110.87798" y="127.38079" stroke-width=".35278">5</tspan></text>
    <text x="112.54521" y="127.38079" font-size="2.9986px" font-style="italic" xml:space="preserve"><tspan x="112.54521" y="127.38079" stroke-width=".35278">z</tspan></text>
    <text x="113.87624" y="126.32246" font-size="2.4694px" xml:space="preserve"><tspan x="113.87624" y="126.32246" stroke-width=".35278">3</tspan></text>
   </g>
   <text x="115.93611" y="127.38079" font-family="Symbol" font-size="2.9986px" xml:space="preserve"><tspan x="115.93611" y="127.38079" stroke-width=".35278">−</tspan></text>
   <g font-family="Sabon">
    <text x="118.332" y="127.38079" font-size="2.9986px" xml:space="preserve"><tspan x="118.332" y="127.38079" stroke-width=".35278">3</tspan></text>
    <text x="119.99923" y="127.38079" font-size="2.9986px" font-style="italic" xml:space="preserve"><tspan x="119.99923 121.33061" y="127.38079" stroke-width=".35278">zr</tspan></text>
    <text x="122.49637" y="126.32246" font-size="2.4694px" xml:space="preserve"><tspan x="122.49637" y="126.32246" stroke-width=".35278">2</tspan></text>
   </g>
  </g>
  <g transform="matrix(.35278 0 0 -.35278 217.47 110.5)">
   <path d="m0 0c-2.716-7.7-8.725-10.726-16.692-7.967-7.966 2.715-4.45 11.349-2.937 14.554 4.941 10.727 23.634 4.852 19.629-6.587" fill="url(#radialGradient996)"/>
   <path d="m0 0c-2.716-7.7-8.725-10.726-16.692-7.967-7.966 2.715-4.45 11.349-2.937 14.554 4.941 10.727 23.634 4.852 19.629-6.587z" fill="none" stroke="#d19887" stroke-width=".25"/>
  </g>
  <g transform="matrix(.35278 0 0 -.35278 32.141 357.77)">
   <g clip-path="url(#clipPath1020)">
    <path d="m537.22 708.27c-3.384 0-5.208 9.658-5.208 13.041 0 3.382 3.783 15.222 14.287 12.061 10.504-3.115 6.186-13.886 4.139-16.557-2.091-2.714-9.882-8.545-13.218-8.545" fill="url(#radialGradient1026)"/>
   </g>
   <g clip-path="url(#clipPath1036)">
    <g transform="translate(537.22 708.27)">
     <path d="m 0,0 c -3.384,0 -5.208,9.658 -5.208,13.041 0,3.382 3.783,15.222 14.287,12.061 C 19.583,21.987 15.265,11.216 13.218,8.545 11.127,5.831 3.336,0 0,0 Z" fill="none" stroke="#d19887" stroke-width=".25"/>
    </g>
   </g>
   <g clip-path="url(#clipPath1058)">
    <path d="m520.43 713.16c5.074 1.379 5.208 8.99 5.208 12.373s-3.783 15.222-14.287 12.061c-10.504-3.115-5.519-14.197-3.428-16.913 2.047-2.714 7.433-8.857 12.507-7.521" fill="url(#radialGradient1064)"/>
   </g>
  </g>
  <g transform="matrix(.35278 0 0 -.35278 215.74 106.18)">
   <path d="m0 0c5.074 1.379 5.208 8.99 5.208 12.373s-3.783 15.222-14.287 12.061c-10.504-3.115-5.519-14.197-3.428-16.913 2.047-2.714 7.433-8.857 12.507-7.521z" fill="none" stroke="#9987c0" stroke-width=".25"/>
  </g>
  <g transform="matrix(.35278 0 0 -.35278 32.141 357.77)">
   <g clip-path="url(#clipPath1088)">
    <path d="m531.87 689.66c-4.095 1.38-2.137 7.656-2.137 11.038 0 3.383 8.146 11.083 16.958 6.944 8.813-4.184 5.118-13.219 3.472-15.934-1.692-2.671-14.198-3.427-18.293-2.048" fill="url(#radialGradient1094)"/>
   </g>
  </g>
  <g transform="matrix(.35278 0 0 -.35278 219.77 114.47)">
   <path d="m0 0c-4.095 1.38-2.137 7.656-2.137 11.038 0 3.383 8.146 11.083 16.958 6.944 8.813-4.184 5.118-13.219 3.472-15.934-1.692-2.671-14.198-3.427-18.293-2.048z" fill="none" stroke="#9987c0" stroke-width=".25"/>
  </g>
  <g transform="matrix(.35278 0 0 -.35278 218.58 110.94)">
   <path d="m0 0c-4.094-0.891-4.184-12.507-4.184-14.777 0-2.225 5.075-12.017 13.887-9.258 8.768 2.671 7.834 13.041 5.475 16.202-2.36 3.115-11.127 8.723-15.178 7.833" fill="url(#radialGradient1108)"/>
   <path d="m0 0c-4.094-0.891-4.184-12.507-4.184-14.777 0-2.225 5.075-12.017 13.887-9.258 8.768 2.671 7.834 13.041 5.475 16.202-2.36 3.115-11.127 8.723-15.178 7.833z" fill="none" stroke="#d19887" stroke-width=".25"/>
  </g>
  <g transform="matrix(.35278 0 0 -.35278 32.141 357.77)">
   <g clip-path="url(#clipPath1132)">
    <path d="m509.57 702.04c2.315 0.934 7.745 0.445 9.837-2.27 2.048-2.671 0.712-7.611-0.891-11.439-3.294-7.655-8.722-10.682-16.69-7.967-8.012 2.715-5.074 11.394-2.938 14.554 2.137 3.116 6.098 5.297 10.682 7.122" fill="url(#radialGradient1138)"/>
   </g>
  </g>
  <g transform="matrix(.35278 0 0 -.35278 211.91 110.11)">
   <path d="m0 0c2.315 0.934 7.745 0.445 9.837-2.27 2.048-2.671 0.712-7.611-0.891-11.439-3.294-7.655-8.722-10.682-16.69-7.967-8.012 2.715-5.074 11.394-2.938 14.554 2.137 3.116 6.098 5.297 10.682 7.122z" fill="none" stroke="#9987c0" stroke-width=".25"/>
  </g>
  <g transform="matrix(.35278 0 0 -.35278 217.78 95.175)">
   <path d="m0 0v-75.618m-33.737 28.623 62.312 17.713m-38.455 0.356 40.191-33.069" fill="none" stroke="#231f20" stroke-linecap="round" stroke-linejoin="round" stroke-width=".5"/>
  </g>
  <g transform="matrix(.35278 0 0 -.35278 218.69 110.39)">
   <path d="m 0,0 c -4.049,1.379 -3.159,8.679 -3.159,12.061 0,3.383 5.43,11.083 14.242,6.944 C 19.896,14.82 16.87,5.786 15.222,3.115 13.531,0.4 4.096,-1.336 0,0" fill="url(#radialGradient1156)"/>
   <path d="m 0,0 c -4.049,1.379 -3.159,8.679 -3.159,12.061 0,3.383 5.43,11.083 14.242,6.944 C 19.896,14.82 16.87,5.786 15.222,3.115 13.531,0.4 4.096,-1.336 0,0 Z" fill="none" stroke="#9987c0" stroke-width=".25"/>
  </g>
  <g transform="matrix(.35278 0 0 -.35278 211.55 102.05)">
   <path d="m0 0c10.949 0.4 12.64-12.329 12.329-13.042-3.294-7.655-9.036-9.702-17.003-6.943-8.901 3.027-12.506 19.406 4.674 19.985" fill="url(#radialGradient1170)"/>
   <path d="m0 0c10.949 0.4 12.64-12.329 12.329-13.042-3.294-7.655-9.036-9.702-17.003-6.943-8.901 3.027-12.506 19.406 4.674 19.985z" fill="none" stroke="#d19887" stroke-width=".25"/>
  </g>
  <g transform="matrix(.35278 0 0 -.35278 32.141 357.77)">
   <g clip-path="url(#clipPath1194)">
    <path d="m241.22 671.74c6.766 0 12.285 4.229 12.285 12.284 0 8.056-7.923 14.999-12.285 17.714-5.029-3.427-12.284-9.658-12.284-17.714 0-8.055 5.519-12.284 12.284-12.284" fill="url(#radialGradient1200)"/>
   </g>
  </g>
  <g transform="matrix(.35278 0 0 -.35278 117.24 120.79)">
   <path d="m0 0c6.766 0 12.285 4.229 12.285 12.284 0 8.056-7.923 14.999-12.285 17.714-5.029-3.427-12.284-9.658-12.284-17.714 0-8.055 5.519-12.284 12.284-12.284z" fill="none" stroke="#d19887" stroke-width=".25"/>
  </g>
  <g transform="matrix(.35278 0 0 -.35278 32.141 357.77)">
   <g clip-path="url(#clipPath1224)">
    <path d="m240.77 696.98c7.424 0 13.762 2.281 13.403 5.389-0.202 1.751-5.825 4.136-13.248 4.136s-13.474-2.437-13.432-4.497c0.051-2.524 5.854-5.028 13.277-5.028zm0.095 14.643c14.288 0 25.904-6.587 25.904-14.643s-11.616-14.643-25.904-14.643c-14.242 0-25.859 6.587-25.859 14.643s11.617 14.643 25.859 14.643" fill="url(#radialGradient1230)"/>
   </g>
  </g>
  <g transform="matrix(.35278 0 0 -.35278 117.08 111.89)">
   <path d="m0 0c7.424 0 13.762 2.281 13.403 5.389-0.202 1.751-5.825 4.136-13.248 4.136s-13.474-2.437-13.432-4.497c0.051-2.524 5.854-5.028 13.277-5.028zm0.095 14.643c14.288 0 25.904-6.587 25.904-14.643s-11.616-14.643-25.904-14.643c-14.242 0-25.859 6.587-25.859 14.643s11.617 14.643 25.859 14.643z" fill="none" stroke="#9987c0" stroke-width=".25"/>
  </g>
  <g transform="matrix(.35278 0 0 -.35278 127.69 102.41)">
   <path d="m0 0-9.524-4.763m-47.356 4.095 10.548-5.429m17.046-17.403v-3.072m-0.356-25.547v-1.829m0.356 42.732v-4.451m-0.433 37.337v-4.98" fill="none" stroke="#231f20" stroke-linecap="round" stroke-linejoin="round" stroke-width=".5"/>
  </g>
  <text x="103.76528" y="115.10056" fill="#231f20" font-family="Sabon" font-size="2.3989px" font-style="italic" stroke-width=".35278" xml:space="preserve"><tspan x="103.76528 129.00398" y="115.10056">xy</tspan><tspan x="116.6785" y="93.143532">z</tspan></text>
  <g transform="matrix(.35278 0 0 -.35278 32.141 357.77)">
   <g clip-path="url(#clipPath1262)">
    <path d="m241.04 708.19c-10.751-0.052-13.013 4.138-12.879 5.246 0.135 1.108 2.782 4.997 12.815 4.988 9.74-0.01 12.222-4.114 12.066-5.389-0.181-1.481-2.987-4.802-12.002-4.845zm23.46 12.206c-0.882 1.209-7.167 9.782-24.233 9.599-11.693-0.126-18.856-4.517-21.354-7.143-2.216-2.33-3.6-5.668-3.58-8.026 0.053-6.181 8.81-14.113 25.243-14.115 17.067-2e-3 23.452 8.917 24.056 9.813 2.65 3.93 1.305 7.903-0.132 9.872" fill="url(#radialGradient1268)"/>
   </g>
  </g>
  <g transform="matrix(.35278 0 0 -.35278 117.17 107.93)">
   <path d="m0 0c-10.751-0.052-13.013 4.138-12.879 5.246 0.135 1.108 2.782 4.997 12.815 4.988 9.74-0.01 12.222-4.114 12.066-5.389-0.181-1.481-2.987-4.802-12.002-4.845zm23.46 12.206c-0.882 1.209-7.167 9.782-24.233 9.599-11.693-0.126-18.856-4.517-21.354-7.143-2.216-2.33-3.6-5.668-3.58-8.026 0.053-6.181 8.81-14.113 25.243-14.115 17.067-2e-3 23.452 8.917 24.056 9.813 2.65 3.93 1.305 7.903-0.132 9.872z" fill="none" stroke="#d19887" stroke-width=".25"/>
  </g>
  <g transform="matrix(.35278 0 0 -.35278 32.141 357.77)">
   <g clip-path="url(#clipPath1290)">
    <path d="m241.22 742.95c6.766 0 12.285-4.184 12.285-12.284 0-8.056-7.923-14.955-12.285-17.67-5.029 3.383-12.284 9.614-12.284 17.67 0 8.1 5.519 12.284 12.284 12.284" fill="url(#radialGradient1296)"/>
   </g>
  </g>
  <g transform="matrix(.35278 0 0 -.35278 117.24 95.671)">
   <path d="m0 0c6.766 0 12.285-4.184 12.285-12.284 0-8.056-7.923-14.955-12.285-17.67-5.029 3.383-12.284 9.614-12.284 17.67 0 8.1 5.519 12.284 12.284 12.284z" fill="none" stroke="#9987c0" stroke-width=".25"/>
  </g>
  <g transform="matrix(.35278 0 0 -.35278 122.17 105.17)">
   <path d="m0 0-16.023-7.968m-14.643 9.704 17.759-9.214m-10.594-4.273-22.832-11.394m40.681 11.928 22.996-11.876m193.04 27.844-10.86-4.362" fill="none" stroke="#231f20" stroke-linecap="round" stroke-linejoin="round" stroke-width=".5"/>
  </g>
  <g transform="matrix(.35278 0 0 -.35278 32.141 357.77)">
   <g clip-path="url(#clipPath1322)">
    <path d="m435.72 712.63c-3.383 0-6.9-7.344-6.9-9.525s2.403-11.973 12.596-8.412c10.148 3.605 3.471 14.509 1.38 16.29-2.047 1.735-3.695 1.647-7.076 1.647" fill="url(#radialGradient1328)"/>
   </g>
  </g>
  <g transform="matrix(.35278 0 0 -.35278 185.85 106.37)">
   <path d="m0 0c-3.383 0-6.9-7.344-6.9-9.525s2.403-11.973 12.596-8.412c10.148 3.605 3.471 14.509 1.38 16.29-2.047 1.735-3.695 1.647-7.076 1.647z" fill="none" stroke="#d19887" stroke-width=".25"/>
  </g>
  <g transform="matrix(.35278 0 0 -.35278 32.141 357.77)">
   <g clip-path="url(#clipPath1350)">
    <path d="m434.69 712.63c-3.383 0-7.566 12.373-7.566 15.755 0 3.383 4.45 15.89 14.598 10.371 10.193-5.519 6.232-14.555 4.139-17.269-2.092-2.715-7.788-8.857-11.171-8.857" fill="url(#radialGradient1356)"/>
   </g>
  </g>
  <g transform="matrix(.35278 0 0 -.35278 185.49 106.37)">
   <path d="m 0,0 c -3.383,0 -7.566,12.373 -7.566,15.755 0,3.383 4.45,15.89 14.598,10.371 C 17.225,20.607 13.264,11.571 11.171,8.857 9.079,6.142 3.383,0 0,0 Z" fill="none" stroke="#9987c0" stroke-width=".25"/>
  </g>
  <g transform="matrix(.35278 0 0 -.35278 32.141 357.77)">
   <g clip-path="url(#clipPath1378)">
    <path d="m446.62 706.13c-3.383 0-9.303 3.56-9.303 6.943 0 3.382 7.878 19.271 18.07 13.752 10.148-5.519 7.21-12.862 5.119-15.577-2.048-2.671-10.504-5.118-13.886-5.118" fill="url(#radialGradient1384)"/>
   </g>
  </g>
  <g transform="matrix(.35278 0 0 -.35278 189.7 108.66)">
   <path d="m 0,0 c -3.383,0 -9.303,3.56 -9.303,6.943 0,3.382 7.878,19.271 18.07,13.752 C 18.915,15.176 15.977,7.833 13.886,5.118 11.838,2.447 3.382,0 0,0 Z" fill="none" stroke="#d19887" stroke-width=".25"/>
  </g>
  <g transform="matrix(.35278 0 0 -.35278 182.49 107.34)">
   <path d="m 0,0 c -3.294,0.979 -18.693,2.181 -21.586,5.252 -1.959,2.092 -3.739,9.346 0.846,13.219 2.047,1.736 4.095,5.564 10.415,4.273 C -2.982,21.23 3.293,-0.935 0,0" fill="url(#radialGradient1398)"/>
   <path d="m0 0c-3.294 0.979-18.693 2.181-21.586 5.252-1.959 2.092-3.739 9.346 0.846 13.219 2.047 1.736 4.095 5.564 10.415 4.273 7.343-1.514 13.618-23.679 10.325-22.744z" fill="none" stroke="#d19887" stroke-width=".25"/>
  </g>
  <g transform="matrix(.35278 0 0 -.35278 32.141 357.77)">
   <g clip-path="url(#clipPath1422)">
    <path d="m429.26 702.4c-0.756-3.606-11.26-15.667-18.16-15.578-3.693 0.089-8.677 4.05-9.39 8.456-1.335 7.878 9.569 14.777 15.845 13.487 7.343-1.514 12.195-3.917 11.705-6.365" fill="url(#radialGradient1428)"/>
   </g>
  </g>
  <g transform="matrix(.35278 0 0 -.35278 183.58 109.98)">
   <path d="m0 0c-0.756-3.606-11.26-15.667-18.16-15.578-3.693 0.089-8.677 4.05-9.39 8.456-1.335 7.878 9.569 14.777 15.845 13.487 7.343-1.514 12.195-3.917 11.705-6.365z" fill="none" stroke="#9987c0" stroke-width=".25"/>
  </g>
  <g transform="matrix(.35278 0 0 -.35278 194.69 111.96)">
   <path d="m0 0c1.246-1.424 2.715-6.988-2.315-11.305-2.714-2.359-8.456-4.985-12.24-2.493-6.675 4.362-12.505 15.667-7.298 19.406 6.096 4.362 16.334 0.49 21.853-5.608" fill="url(#radialGradient1442)"/>
   <path d="m0 0c1.246-1.424 2.715-6.988-2.315-11.305-2.714-2.359-8.456-4.985-12.24-2.493-6.675 4.362-12.505 15.667-7.298 19.406 6.096 4.362 16.334 0.49 21.853-5.608z" fill="none" stroke="#9987c0" stroke-width=".25"/>
  </g>
  <g transform="matrix(.35278 0 0 -.35278 196.51 115.03)">
   <path d="m0 0-51.094 31.022m24.345-8.857-45.131-18.07m38.856 52.2v-75.618" fill="none" stroke="#231f20" stroke-linecap="round" stroke-linejoin="round" stroke-width=".5"/>
  </g>
  <g transform="matrix(.35278 0 0 -.35278 32.141 357.77)">
   <g clip-path="url(#clipPath1470)">
    <path d="m432.82 698.12c1.78-2.492 4.852-16.156 0.089-21.097-2.537-2.67-9.836-3.293-13.574-0.801-6.722 4.317-4.363 18.026 0.844 21.765 6.098 4.361 10.817 2.67 12.641 0.133" fill="url(#radialGradient1476)"/>
   </g>
  </g>
  <g transform="matrix(.35278 0 0 -.35278 184.83 111.49)">
   <path d="m0 0c1.78-2.492 4.852-16.156 0.089-21.097-2.537-2.67-9.836-3.293-13.574-0.801-6.722 4.317-4.363 18.026 0.844 21.765 6.098 4.361 10.817 2.67 12.641 0.133z" fill="none" stroke="#d19887" stroke-width=".25"/>
  </g>
  <g transform="matrix(.35278 0 0 -.35278 32.141 357.77)">
   <g clip-path="url(#clipPath1500)">
    <path d="m434.8 701.2c-2.092-2.225-13.887-3.604-16.78-0.578-1.958 2.137-5.429 10.059-0.89 13.931 2.093 1.736 3.116 5.252 9.392 3.961 7.343-1.513 10.369-15.043 8.278-17.314" fill="url(#radialGradient1506)"/>
   </g>
  </g>
  <g transform="matrix(.35278 0 0 -.35278 185.53 110.4)">
   <path d="m0 0c-2.092-2.225-13.887-3.604-16.78-0.578-1.958 2.137-5.429 10.059-0.89 13.931 2.093 1.736 3.116 5.252 9.392 3.961 7.343-1.513 10.369-15.043 8.278-17.314z" fill="none" stroke="#9987c0" stroke-width=".25"/>
  </g>
  <g transform="matrix(.35278 0 0 -.35278 157.4 105.84)">
   <path d="m0 0 17.358 6.631" fill="none" stroke="#231f20" stroke-linecap="round" stroke-linejoin="round" stroke-width=".5"/>
  </g>
  <g transform="matrix(.35278 0 0 -.35278 156.32 117.92)">
   <path d="m0 0c5.029 0 8.856 6.409 7.833 11.75-1.024 5.296-11.661 12.061-18.07 12.061-6.364 0-3.382-2.671-3.382-11.394s8.59-12.417 13.619-12.417" fill="url(#radialGradient1524)"/>
   <path d="m0 0c5.029 0 8.856 6.409 7.833 11.75-1.024 5.296-11.661 12.061-18.07 12.061-6.364 0-3.382-2.671-3.382-11.394s8.59-12.417 13.619-12.417z" fill="none" stroke="#9987c0" stroke-width=".25"/>
  </g>
  <g transform="matrix(.35278 0 0 -.35278 159.45 110.71)">
   <path d="m0 0c5.029 0 8.857 6.409 7.833 11.75-1.023 5.296-11.66 12.061-18.069 12.061-6.364 0-9.88 2.447-9.88-6.276 0-8.722 15.087-17.535 20.116-17.535" fill="url(#radialGradient1538)"/>
   <path d="m0 0c5.029 0 8.857 6.409 7.833 11.75-1.023 5.296-11.66 12.061-18.069 12.061-6.364 0-9.88 2.447-9.88-6.276 0-8.722 15.087-17.535 20.116-17.535z" fill="none" stroke="#d19887" stroke-width=".25"/>
  </g>
  <g transform="matrix(.35278 0 0 -.35278 155.83 96.296)">
   <path d="m0 0c6.409 0 9.569-4.717 9.569-13.44 0-8.724-10.326-14.821-16.69-14.821-6.409 0-6.497 6.409-6.497 15.132s7.254 13.129 13.618 13.129" fill="url(#radialGradient1552)"/>
   <path d="m0 0c6.409 0 9.569-4.717 9.569-13.44 0-8.724-10.326-14.821-16.69-14.821-6.409 0-6.497 6.409-6.497 15.132s7.254 13.129 13.618 13.129z" fill="none" stroke="#9987c0" stroke-width=".25"/>
  </g>
  <g transform="matrix(.35278 0 0 -.35278 32.141 357.77)">
   <g clip-path="url(#clipPath1576)">
    <path d="m324.15 671.71c-3.338 0-9.613 8.323-9.613 11.705 0 3.383 4.807 19.627 16.689 14.42 11.884-5.163 6.187-18.648 4.14-21.362-2.092-2.671-7.833-4.763-11.216-4.763" fill="url(#radialGradient1582)"/>
   </g>
  </g>
  <g transform="matrix(.35278 0 0 -.35278 146.49 120.81)">
   <path d="m 0,0 c -3.338,0 -9.613,8.323 -9.613,11.705 0,3.383 4.807,19.627 16.689,14.42 C 18.96,20.962 13.263,7.477 11.216,4.763 9.124,2.092 3.383,0 0,0 Z" fill="none" stroke="#d19887" stroke-width=".25"/>
  </g>
  <g transform="matrix(.35278 0 0 -.35278 32.141 357.77)">
   <g clip-path="url(#clipPath1606)">
    <path d="m316.67 712.92c-5.074 0-9.614-3.071-9.614-10.013 0-6.943 14.642-17.224 24.478-10.771 9.88 6.454 0.757 9.525-4.717 13.752-5.43 4.229-5.074 7.032-10.147 7.032" fill="url(#radialGradient1612)"/>
   </g>
  </g>
  <g transform="matrix(.35278 0 0 -.35278 143.85 106.27)">
   <path d="m0 0c-5.074 0-9.614-3.071-9.614-10.013 0-6.943 14.642-17.224 24.478-10.771 9.88 6.454 0.757 9.525-4.717 13.752-5.43 4.229-5.074 7.032-10.147 7.032z" fill="none" stroke="#9987c0" stroke-width=".25"/>
  </g>
  <g transform="matrix(.35278 0 0 -.35278 148.27 109.34)">
   <path d="m0 0 20.116 7.7m-50.781-19.405 16.067 6.098m23.142 45.769v-75.618m29.953 15.918-55.498 42.147" fill="none" stroke="#231f20" stroke-linecap="round" stroke-linejoin="round" stroke-width=".5"/>
  </g>
  <g transform="matrix(.35278 0 0 -.35278 146.49 98.463)">
   <path d="m0 0c-5.074 0-9.613-4.762-9.613-11.705s16.378-15.176 21.452-13.129c5.073 2.048 0.712 10.904-1.335 15.088-2.048 4.227-5.43 9.746-10.504 9.746" fill="url(#radialGradient1630)"/>
   <path d="m0 0c-5.074 0-9.613-4.762-9.613-11.705s16.378-15.176 21.452-13.129c5.073 2.048 0.712 10.904-1.335 15.088-2.048 4.227-5.43 9.746-10.504 9.746z" fill="none" stroke="#d19887" stroke-width=".25"/>
  </g>
 </g>
</svg>
