<?xml version="1.0" encoding="UTF-8"?>
<!-- Created with Inkscape (http://www.inkscape.org/) -->
<svg width="51.512mm" height="43.632mm" version="1.1" viewBox="0 0 51.512 43.632" xmlns="http://www.w3.org/2000/svg" xmlns:ns3="http://www.iki.fi/pav/software/textext/">
 <defs>
  <clipPath id="clipPath3214">
   <path d="m446.85 587.52h144.86v126.33h-144.86z"/>
  </clipPath>
  <clipPath id="clipPath3330">
   <path d="m446.85 587.52h144.86v126.33h-144.86z"/>
  </clipPath>
 </defs>
 <g transform="translate(-107.85 101.1)">
  <g transform="matrix(.35278 0 0 -.35278 -49.793 149.8)">
   <g clip-path="url(#clipPath3214)">
    <g transform="translate(515.69 598.56)">
     <path d="m0 0c0.894 2e-3 1.746 0.371 2.511 0.854-1.476-2.719-2.055-6.094-2.495-8.329-0.453 2.231-1.039 5.604-2.531 8.311 0.767-0.477 1.622-0.84 2.515-0.836" fill="#00adef"/>
    </g>
    <g transform="translate(492.7 680.59)">
     <path d="m0 0c0.742 0.497 1.656 0.667 2.558 0.695-2.742 1.428-5.11 3.903-6.725 5.51 0.873-2.103 2.273-5.226 2.55-8.307 0.369 0.825 0.874 1.604 1.617 2.102" fill="#00adef"/>
    </g>
    <g transform="translate(575.52 678.35)">
     <path d="m0 0c-0.422 0.788-1.148 1.367-1.932 1.816 3.091-0.027 6.344 1.047 8.524 1.707-1.757-1.448-4.46-3.548-6.151-6.136 0.061 0.9-0.019 1.826-0.441 2.613" fill="#00adef"/>
    </g>
    <g transform="translate(515.66 646.5)" fill="none" stroke="#00adef" stroke-width="2.25">
     <path d="m0 0v-49.128"/>
     <path d="m0 0-23.558 34.927"/>
     <path d="m0 0 60.882 32.37"/>
    </g>
    <g transform="translate(446.85 646.5)">
     <path d="m0 0h137.61" fill="none" stroke="#231f20" stroke-linejoin="round" stroke-width=".6"/>
    </g>
    <g transform="translate(532.57 646.5)">
     <path d="m0 0c0 2.447-0.669 4.754-1.848 6.771" fill="none" stroke="#231f20" stroke-width=".36"/>
    </g>
    <g transform="translate(505.46 659.7)">
     <path d="m0 0c-4.05-2.863-6.711-7.708-6.711-13.201" fill="none" stroke="#231f20" stroke-width=".36"/>
    </g>
    <g transform="translate(515.66 702.47)">
     <path d="m0 0v-114.96" fill="none" stroke="#231f20" stroke-linejoin="round" stroke-width=".6"/>
    </g>
   </g>
  </g>
  <g fill="#231f20" stroke-width=".35278">
   <g font-size="3.175px">
    <text x="136.55804" y="-68.301506" font-family="'Times Ten LT Std Roman'" xml:space="preserve"><tspan x="136.55804" y="-68.301506" stroke-width=".35278">(</tspan></text>
    <text x="137.79312" y="-68.301506" font-family="'Times Ten LT Std'" font-style="italic" xml:space="preserve"><tspan x="137.79312" y="-68.301506" stroke-width=".35278">C</tspan></text>
    <text x="140.79092" y="-68.301506" font-family="PearsonMATHPRO02" font-weight="500" xml:space="preserve"><tspan x="140.79092" y="-68.301506" stroke-width=".35278">=</tspan></text>
    <text x="143.45792" y="-68.301506" font-family="'Times Ten LT Std Roman'" xml:space="preserve"><tspan x="143.45792 145.04543 146.63292 147.42667 149.01418" y="-68.301506" stroke-width=".35278">31.0)</tspan></text>
   </g>
   <g font-size="3.1749px">
    <g>
     <text transform="rotate(55.998)" x="-10.172204" y="-154.91359" font-family="'Times Ten LT Std Roman'" xml:space="preserve"><tspan x="-10.172204" y="-154.91359" stroke-width=".35278">(</tspan></text>
     <text transform="rotate(55.998)" x="-8.9371586" y="-154.91359" font-family="'Times Ten LT Std'" font-style="italic" xml:space="preserve"><tspan x="-8.9371586" y="-154.91359" stroke-width=".35278">B</tspan></text>
     <text transform="rotate(55.998)" x="-5.8511467" y="-154.91359" font-family="'Times Ten LT Std Roman'" xml:space="preserve"><tspan x="-5.8511467 -3.9461987 -3.1524701 -1.5650135 0.022443404 0.81617182 2.4036288" y="-154.91359" stroke-width=".35278">= 29.7)</tspan></text>
     <text transform="rotate(-28.003)" x="160.51326" y="-8.3186188" font-family="'Times Ten LT Std Roman'" xml:space="preserve"><tspan x="160.51326" y="-8.3186188" stroke-width=".35278">(</tspan></text>
     <text transform="rotate(-28.003)" x="161.74831" y="-8.3186169" font-family="'Times Ten LT Std'" font-style="italic" xml:space="preserve"><tspan x="161.74831" y="-8.3186169" stroke-width=".35278">A</tspan></text>
    </g>
    <text transform="rotate(-28.003)" x="165.01212" y="-8.318615" font-family="PearsonMATHPRO02" font-weight="500" xml:space="preserve"><tspan x="165.01212" y="-8.318615" stroke-width=".35278">=</tspan></text>
    <text transform="rotate(-28.003)" x="167.67903" y="-8.3186169" font-family="'Times Ten LT Std Roman'" xml:space="preserve"><tspan x="167.67903 169.26648 170.85394 171.64767 173.23512" y="-8.3186169" stroke-width=".35278">42.0)</tspan></text>
   </g>
  </g>
  <g transform="matrix(.35278 0 0 -.35278 -49.793 149.8)">
   <g clip-path="url(#clipPath3330)" fill="#231f20" font-family="'Times Ten LT Std'" font-style="italic">
    <text transform="matrix(1 0 0 -1 586.96 644.58)" font-size="9.5px" xml:space="preserve"><tspan x="0" y="0">x</tspan></text>
    <text transform="matrix(1 0 0 -1 513.31 706.37)" font-size="9px" xml:space="preserve"><tspan x="0" y="0">y</tspan></text>
   </g>
  </g>
  <text x="121.1763" y="-80.485428" fill="#231f20" font-family="'Times Ten LT Std Roman'" font-size="2.8222px" stroke-width=".35278" xml:space="preserve"><tspan x="121.1763 122.58741 123.99852 124.70408 126.11519" y="-80.485428">56.0°</tspan><tspan x="138.60069 140.01181 141.42293 142.12848 143.53958" y="-79.147697">28.0°</tspan></text>
  <g transform="matrix(.35278 0 0 .35278 156.23 -93.358)" ns3:alignment="middle center" ns3:jacobian_sqrt="0.352778" ns3:pdfconverter="inkscape" ns3:preamble="/home/kalmer/.config/inkscape/extensions/textext/default_packages.tex" ns3:scale="0.9999999968109189" ns3:stroke-to-path="0" ns3:texconverter="pdflatex" ns3:text="$\\overrightarrow{\\bf{A}}$" ns3:version="1.8.1">
   <defs id="id-07d28b52-4f02-4e0c-863b-e9bb298c80ca"></defs>
   <g id="id-0ed74954-aaea-4990-a972-2373121d73ab" transform="translate(-149.26 -123.36)">
    <g transform="translate(148.71 128.46)">
     <path d="m6.5625-2.2969c0.17188 0 0.35938 0 0.35938-0.20312 0-0.1875-0.1875-0.1875-0.35938-0.1875h-5.3906c-0.17188 0-0.34375 0-0.34375 0.1875 0 0.20312 0.17188 0.20312 0.34375 0.20312z"/>
    </g>
   </g>
   <g transform="translate(-149.26 -123.36)">
    <g transform="translate(148.71 128.46)">
     <path id="id-8d67a205-64d2-4dca-84d9-164b30040e2c" d="m8.3125-2.2969c-0.54688 0.42188-0.8125 0.82812-0.89062 0.96875-0.45312 0.6875-0.53125 1.3125-0.53125 1.3125 0 0.125 0.125 0.125 0.20312 0.125 0.15625 0 0.17188-0.015625 0.21875-0.20312 0.21875-0.96875 0.8125-1.8125 1.9375-2.2656 0.125-0.046875 0.15625-0.0625 0.15625-0.14062 0-0.0625-0.0625-0.09375-0.078125-0.10938-0.45312-0.15625-1.6562-0.65625-2.0312-2.3281-0.03125-0.125-0.046875-0.15625-0.20312-0.15625-0.078125 0-0.20312 0-0.20312 0.125 0 0.015625 0.09375 0.64062 0.5 1.3125 0.20312 0.29688 0.5 0.64062 0.92188 0.96875h-7.4062c-0.17188 0-0.35938 0-0.35938 0.1875 0 0.20312 0.1875 0.20312 0.35938 0.20312z"/>
    </g>
    <g transform="translate(149.36 135.29)">
     <path d="m4.7188-6.7031c-0.10938-0.25-0.21875-0.25-0.39062-0.25-0.28125 0-0.32812 0.078125-0.39062 0.25l-2.4688 6c-0.0625 0.15625-0.09375 0.23438-0.84375 0.23438h-0.21875v0.46875c0.375-0.015625 0.85938-0.03125 1.1719-0.03125 0.39062 0 0.9375 0 1.3125 0.03125v-0.46875c-0.015625 0-0.89062 0-0.89062-0.125 0-0.015625 0.03125-0.10938 0.046875-0.125l0.5-1.2031h2.6719l0.59375 1.4531h-0.95312v0.46875c0.39062-0.03125 1.3281-0.03125 1.7656-0.03125 0.39062 0 1.2656 0 1.625 0.03125v-0.46875h-0.96875zm-0.84375 1.5469 1.1406 2.7656h-2.2812z"/>
    </g>
   </g>
  </g>
  <g transform="matrix(.35278 0 0 .35278 117.46 -95.199)" ns3:alignment="middle center" ns3:jacobian_sqrt="0.352778" ns3:pdfconverter="inkscape" ns3:preamble="/home/kalmer/.config/inkscape/extensions/textext/default_packages.tex" ns3:scale="0.9999999968109189" ns3:stroke-to-path="0" ns3:texconverter="pdflatex" ns3:text="$\\overrightarrow{\\bf{B}}$" ns3:version="1.8.1">
   <defs>
    <g id="id-8cf94733-4457-41bb-96dd-6473e1391d7b"></g>
   </defs>
   <g>
    <g id="id-2035df04-326f-4466-8b6f-ea2d690621ec" transform="translate(-149.26 -123.36)">
     <g transform="translate(148.71 128.46)">
      <path id="id-b12304f0-ca9e-4627-b6d3-1fb70cf872ac" d="m6.5625-2.2969c0.17188 0 0.35938 0 0.35938-0.20312 0-0.1875-0.1875-0.1875-0.35938-0.1875h-5.3906c-0.17188 0-0.34375 0-0.34375 0.1875 0 0.20312 0.17188 0.20312 0.34375 0.20312z"/>
     </g>
    </g>
    <g id="id-4c0f88e4-0485-4d50-a5cc-4f37a6c68d6a" transform="translate(-149.26 -123.36)">
     <g transform="translate(148.71 128.46)">
      <path id="id-09e539d0-6b85-4d8e-afb3-9c74d941246c" d="m8.3125-2.2969c-0.54688 0.42188-0.8125 0.82812-0.89062 0.96875-0.45312 0.6875-0.53125 1.3125-0.53125 1.3125 0 0.125 0.125 0.125 0.20312 0.125 0.15625 0 0.17188-0.015625 0.21875-0.20312 0.21875-0.96875 0.8125-1.8125 1.9375-2.2656 0.125-0.046875 0.15625-0.0625 0.15625-0.14062 0-0.0625-0.0625-0.09375-0.078125-0.10938-0.45312-0.15625-1.6562-0.65625-2.0312-2.3281-0.03125-0.125-0.046875-0.15625-0.20312-0.15625-0.078125 0-0.20312 0-0.20312 0.125 0 0.015625 0.09375 0.64062 0.5 1.3125 0.20312 0.29688 0.5 0.64062 0.92188 0.96875h-7.4062c-0.17188 0-0.35938 0-0.35938 0.1875 0 0.20312 0.1875 0.20312 0.35938 0.20312z"/>
     </g>
    </g>
    <g transform="translate(-149.26 -123.36)">
     <g transform="translate(149.62 135.29)">
      <path d="m2.7656-3.7344v-2.6406h1.8125c1.0156 0 1.1875 0.79688 1.1875 1.25 0 0.76562-0.46875 1.3906-1.4375 1.3906zm2.7031 0.17188c1.0781-0.20312 1.7188-0.79688 1.7188-1.5625 0-0.92188-0.875-1.7188-2.4688-1.7188h-4.3281v0.46875h1.0781v5.9062h-1.0781v0.46875h4.625c1.6562 0 2.4844-0.875 2.4844-1.8594 0-0.95312-0.84375-1.625-2.0312-1.7031zm-0.85938 3.0938h-1.8438v-2.9062h1.9375c0.20312 0 0.67188 0 1.0156 0.42188 0.32812 0.42188 0.32812 0.98438 0.32812 1.0938s0 1.3906-1.4375 1.3906z"/>
     </g>
    </g>
   </g>
  </g>
  <g transform="matrix(.35278 0 0 .35278 133.47 -64.054)" ns3:alignment="middle center" ns3:jacobian_sqrt="0.352778" ns3:pdfconverter="inkscape" ns3:preamble="/home/kalmer/.config/inkscape/extensions/textext/default_packages.tex" ns3:scale="0.9999999968109189" ns3:stroke-to-path="0" ns3:texconverter="pdflatex" ns3:text="$\\overrightarrow{\\bf{C}}$" ns3:version="1.8.1">
   <defs></defs>
   <g transform="translate(-149.26 -123.36)">
    <g transform="translate(148.71 128.46)">
     <path d="m6.5625-2.2969c0.17188 0 0.35938 0 0.35938-0.20312 0-0.1875-0.1875-0.1875-0.35938-0.1875h-5.3906c-0.17188 0-0.34375 0-0.34375 0.1875 0 0.20312 0.17188 0.20312 0.34375 0.20312z"/>
    </g>
    <g transform="translate(148.71 128.46)">
     <path id="id-a9e3b283-51e3-4c6a-b156-3469d82f718a" d="m8.3125-2.2969c-0.54688 0.42188-0.8125 0.82812-0.89062 0.96875-0.45312 0.6875-0.53125 1.3125-0.53125 1.3125 0 0.125 0.125 0.125 0.20312 0.125 0.15625 0 0.17188-0.015625 0.21875-0.20312 0.21875-0.96875 0.8125-1.8125 1.9375-2.2656 0.125-0.046875 0.15625-0.0625 0.15625-0.14062 0-0.0625-0.0625-0.09375-0.078125-0.10938-0.45312-0.15625-1.6562-0.65625-2.0312-2.3281-0.03125-0.125-0.046875-0.15625-0.20312-0.15625-0.078125 0-0.20312 0-0.20312 0.125 0 0.015625 0.09375 0.64062 0.5 1.3125 0.20312 0.29688 0.5 0.64062 0.92188 0.96875h-7.4062c-0.17188 0-0.35938 0-0.35938 0.1875 0 0.20312 0.1875 0.20312 0.35938 0.20312z"/>
    </g>
   </g>
   <g id="id-01e264c2-473d-4cdf-aa4a-33a2405f221f" transform="translate(-149.26 -123.36)">
    <g transform="translate(149.56 135.29)">
     <path d="m7.6406-6.6719c0-0.1875 0-0.28125-0.1875-0.28125-0.09375 0-0.10938 0.03125-0.1875 0.09375l-0.65625 0.59375c-0.625-0.5-1.2812-0.6875-1.9688-0.6875-2.4844 0-4 1.4844-4 3.5312s1.5156 3.5312 4 3.5312c1.875 0 3-1.2188 3-2.375 0-0.20312-0.078125-0.20312-0.25-0.20312-0.125 0-0.21875 0-0.21875 0.17188-0.078125 1.3281-1.2812 1.9375-2.2812 1.9375-0.78125 0-1.625-0.23438-2.1406-0.84375-0.46875-0.57812-0.59375-1.3125-0.59375-2.2188 0-0.5625 0.03125-1.625 0.67188-2.2969 0.64062-0.65625 1.5156-0.76562 2.0312-0.76562 1.0781 0 2.0156 0.76562 2.2344 2.0312 0.03125 0.1875 0.046875 0.20312 0.26562 0.20312 0.26562 0 0.28125-0.015625 0.28125-0.28125z"/>
    </g>
   </g>
  </g>
 </g>
</svg>
